<?xml version="1.0" encoding="UTF-8" standalone="no"?>
<!DOCTYPE svg PUBLIC "-//W3C//DTD SVG 1.1//EN"
 "http://www.w3.org/Graphics/SVG/1.1/DTD/svg11.dtd">
<!-- Generated by graphviz version 2.43.0 (0)
 -->
<!-- Pages: 1 -->
<svg width="837pt" height="332pt"
 viewBox="0.00 0.00 837.19 332.00" xmlns="http://www.w3.org/2000/svg" xmlns:xlink="http://www.w3.org/1999/xlink">
<g id="graph0" class="graph" transform="scale(1 1) rotate(0) translate(4 328)">
<polygon fill="white" stroke="transparent" points="-4,4 -4,-328 833.19,-328 833.19,4 -4,4"/>
<!-- config -->
<g id="node1" class="node">
<title>config</title>
<ellipse fill="#b2dfee" stroke="#b2dfee" cx="333.05" cy="-90" rx="33.29" ry="18"/>
<text text-anchor="middle" x="333.05" y="-86.3" font-family="Times,serif" font-size="14.00">config</text>
</g>
<!-- dyadic_frequencies -->
<g id="node2" class="node">
<title>dyadic_frequencies</title>
<ellipse fill="#b2dfee" stroke="#b2dfee" cx="333.05" cy="-18" rx="79.09" ry="18"/>
<text text-anchor="middle" x="333.05" y="-14.3" font-family="Times,serif" font-size="14.00">dyadic_frequencies</text>
</g>
<!-- config&#45;&gt;dyadic_frequencies -->
<g id="edge1" class="edge">
<title>config&#45;&gt;dyadic_frequencies</title>
<path fill="none" stroke="black" d="M333.05,-71.7C333.05,-63.98 333.05,-54.71 333.05,-46.11"/>
<polygon fill="black" stroke="black" points="336.55,-46.1 333.05,-36.1 329.55,-46.1 336.55,-46.1"/>
</g>
<!-- kalman_filter -->
<g id="node3" class="node">
<title>kalman_filter</title>
<ellipse fill="#b2dfee" stroke="#b2dfee" cx="151.05" cy="-162" rx="58.49" ry="18"/>
<text text-anchor="middle" x="151.05" y="-158.3" font-family="Times,serif" font-size="14.00">kalman_filter</text>
</g>
<!-- kalman_filter&#45;&gt;config -->
<g id="edge2" class="edge">
<title>kalman_filter&#45;&gt;config</title>
<path fill="none" stroke="black" d="M186.14,-147.5C218.06,-135.23 264.97,-117.18 297.14,-104.81"/>
<polygon fill="black" stroke="black" points="298.54,-108.02 306.62,-101.16 296.03,-101.49 298.54,-108.02"/>
</g>
<!-- utilities -->
<g id="node4" class="node">
<title>utilities</title>
<ellipse fill="#b2dfee" stroke="#b2dfee" cx="440.05" cy="-90" rx="37.09" ry="18"/>
<text text-anchor="middle" x="440.05" y="-86.3" font-family="Times,serif" font-size="14.00">utilities</text>
</g>
<!-- kalman_filter&#45;&gt;utilities -->
<g id="edge3" class="edge">
<title>kalman_filter&#45;&gt;utilities</title>
<path fill="none" stroke="black" d="M194.62,-149.79C202.41,-147.83 210.46,-145.83 218.05,-144 287.64,-127.2 305.52,-125.06 375.05,-108 382.69,-106.12 390.83,-104.06 398.66,-102.03"/>
<polygon fill="black" stroke="black" points="399.57,-105.41 408.36,-99.49 397.8,-98.63 399.57,-105.41"/>
</g>
<!-- wavelet_spectra -->
<g id="node5" class="node">
<title>wavelet_spectra</title>
<ellipse fill="#b2dfee" stroke="#b2dfee" cx="295.05" cy="-162" rx="67.69" ry="18"/>
<text text-anchor="middle" x="295.05" y="-158.3" font-family="Times,serif" font-size="14.00">wavelet_spectra</text>
</g>
<!-- wavelet_spectra&#45;&gt;config -->
<g id="edge4" class="edge">
<title>wavelet_spectra&#45;&gt;config</title>
<path fill="none" stroke="black" d="M304.25,-144.05C308.68,-135.89 314.09,-125.91 319.03,-116.82"/>
<polygon fill="black" stroke="black" points="322.24,-118.25 323.93,-107.79 316.09,-114.91 322.24,-118.25"/>
</g>
<!-- wavelet_spectra&#45;&gt;utilities -->
<g id="edge5" class="edge">
<title>wavelet_spectra&#45;&gt;utilities</title>
<path fill="none" stroke="black" d="M326.15,-145.98C349.51,-134.71 381.5,-119.26 405.63,-107.62"/>
<polygon fill="black" stroke="black" points="407.3,-110.7 414.78,-103.2 404.25,-104.39 407.3,-110.7"/>
</g>
<!-- metrics -->
<g id="node6" class="node">
<title>metrics</title>
<ellipse fill="#b2dfee" stroke="#b2dfee" cx="37.05" cy="-162" rx="37.09" ry="18"/>
<text text-anchor="middle" x="37.05" y="-158.3" font-family="Times,serif" font-size="14.00">metrics</text>
</g>
<!-- metrics&#45;&gt;config -->
<g id="edge6" class="edge">
<title>metrics&#45;&gt;config</title>
<path fill="none" stroke="black" d="M65.17,-150.12C71.34,-147.93 77.87,-145.76 84.05,-144 156.05,-123.42 241.83,-106.86 291.6,-98.02"/>
<polygon fill="black" stroke="black" points="292.41,-101.43 301.65,-96.25 291.2,-94.54 292.41,-101.43"/>
</g>
<!-- metrics&#45;&gt;utilities -->
<g id="edge7" class="edge">
<title>metrics&#45;&gt;utilities</title>
<path fill="none" stroke="black" d="M64.57,-149.88C70.89,-147.66 77.63,-145.54 84.05,-144 210.78,-113.65 247.06,-132.54 375.05,-108 382.94,-106.49 391.29,-104.56 399.29,-102.54"/>
<polygon fill="black" stroke="black" points="400.36,-105.88 409.16,-99.97 398.6,-99.11 400.36,-105.88"/>
</g>
<!-- quantile_filter_smoother -->
<g id="node7" class="node">
<title>quantile_filter_smoother</title>
<ellipse fill="#b2dfee" stroke="#b2dfee" cx="731.05" cy="-162" rx="98.28" ry="18"/>
<text text-anchor="middle" x="731.05" y="-158.3" font-family="Times,serif" font-size="14.00">quantile_filter_smoother</text>
</g>
<!-- quantile_filter_smoother&#45;&gt;config -->
<g id="edge8" class="edge">
<title>quantile_filter_smoother&#45;&gt;config</title>
<path fill="none" stroke="black" d="M652.26,-151.24C583.66,-142.11 481.73,-127.05 394.05,-108 386.58,-106.38 378.66,-104.38 371.1,-102.34"/>
<polygon fill="black" stroke="black" points="372,-98.95 361.43,-99.64 370.12,-105.7 372,-98.95"/>
</g>
<!-- quantile_filter_smoother&#45;&gt;utilities -->
<g id="edge9" class="edge">
<title>quantile_filter_smoother&#45;&gt;utilities</title>
<path fill="none" stroke="black" d="M673.9,-147.25C617.69,-133.73 533.16,-113.4 482.61,-101.24"/>
<polygon fill="black" stroke="black" points="483.21,-97.78 472.67,-98.85 481.57,-104.59 483.21,-97.78"/>
</g>
<!-- spreadsheet_handle -->
<g id="node8" class="node">
<title>spreadsheet_handle</title>
<ellipse fill="#b2dfee" stroke="#b2dfee" cx="460.05" cy="-162" rx="79.09" ry="18"/>
<text text-anchor="middle" x="460.05" y="-158.3" font-family="Times,serif" font-size="14.00">spreadsheet_handle</text>
</g>
<!-- spreadsheet_handle&#45;&gt;config -->
<g id="edge10" class="edge">
<title>spreadsheet_handle&#45;&gt;config</title>
<path fill="none" stroke="black" d="M431.23,-145.12C411.3,-134.13 384.8,-119.52 364.35,-108.26"/>
<polygon fill="black" stroke="black" points="365.88,-105.1 355.43,-103.34 362.5,-111.23 365.88,-105.1"/>
</g>
<!-- spreadsheet_handle&#45;&gt;utilities -->
<g id="edge11" class="edge">
<title>spreadsheet_handle&#45;&gt;utilities</title>
<path fill="none" stroke="black" d="M455.1,-143.7C452.87,-135.9 450.19,-126.51 447.71,-117.83"/>
<polygon fill="black" stroke="black" points="451.05,-116.76 444.93,-108.1 444.32,-118.68 451.05,-116.76"/>
</g>
<!-- joint_angles -->
<g id="node9" class="node">
<title>joint_angles</title>
<ellipse fill="#b2dfee" stroke="#b2dfee" cx="567.05" cy="-234" rx="53.89" ry="18"/>
<text text-anchor="middle" x="567.05" y="-230.3" font-family="Times,serif" font-size="14.00">joint_angles</text>
</g>
<!-- joint_angles&#45;&gt;config -->
<g id="edge12" class="edge">
<title>joint_angles&#45;&gt;config</title>
<path fill="none" stroke="black" d="M568.43,-215.75C569.04,-195.74 566.74,-163.06 548.05,-144 498.83,-93.82 462.14,-125.44 394.05,-108 386.64,-106.1 378.76,-103.98 371.2,-101.9"/>
<polygon fill="black" stroke="black" points="372.1,-98.52 361.53,-99.21 370.22,-105.26 372.1,-98.52"/>
</g>
<!-- joint_angles&#45;&gt;utilities -->
<g id="edge13" class="edge">
<title>joint_angles&#45;&gt;utilities</title>
<path fill="none" stroke="black" d="M576.34,-216C585.43,-196.81 595.92,-165.48 581.05,-144 559.96,-113.54 519.03,-100.56 486.68,-95.05"/>
<polygon fill="black" stroke="black" points="486.92,-91.54 476.51,-93.5 485.87,-98.46 486.92,-91.54"/>
</g>
<!-- joint_angles&#45;&gt;quantile_filter_smoother -->
<g id="edge14" class="edge">
<title>joint_angles&#45;&gt;quantile_filter_smoother</title>
<path fill="none" stroke="black" d="M599.06,-219.34C623.49,-208.91 657.49,-194.39 684.87,-182.71"/>
<polygon fill="black" stroke="black" points="686.43,-185.85 694.25,-178.71 683.68,-179.41 686.43,-185.85"/>
</g>
<!-- dodo -->
<g id="node10" class="node">
<title>dodo</title>
<ellipse fill="#b2dfee" stroke="#b2dfee" cx="460.05" cy="-306" rx="28.7" ry="18"/>
<text text-anchor="middle" x="460.05" y="-302.3" font-family="Times,serif" font-size="14.00">dodo</text>
</g>
<!-- dodo&#45;&gt;kalman_filter -->
<g id="edge15" class="edge">
<title>dodo&#45;&gt;kalman_filter</title>
<path fill="none" stroke="black" d="M437.58,-294.67C385.82,-270.89 257.6,-211.97 191.65,-181.66"/>
<polygon fill="black" stroke="black" points="192.94,-178.4 182.39,-177.41 190.02,-184.76 192.94,-178.4"/>
</g>
<!-- dodo&#45;&gt;wavelet_spectra -->
<g id="edge16" class="edge">
<title>dodo&#45;&gt;wavelet_spectra</title>
<path fill="none" stroke="black" d="M443.93,-291.13C415.55,-266.7 356.41,-215.81 321.82,-186.04"/>
<polygon fill="black" stroke="black" points="323.87,-183.18 314,-179.31 319.3,-188.49 323.87,-183.18"/>
</g>
<!-- dodo&#45;&gt;metrics -->
<g id="edge17" class="edge">
<title>dodo&#45;&gt;metrics</title>
<path fill="none" stroke="black" d="M433.6,-298.76C395.86,-289.65 324.51,-271.63 265.05,-252 196.06,-229.23 117.54,-197.18 72.98,-178.4"/>
<polygon fill="black" stroke="black" points="74.31,-175.17 63.73,-174.49 71.58,-181.61 74.31,-175.17"/>
</g>
<!-- dodo&#45;&gt;quantile_filter_smoother -->
<g id="edge18" class="edge">
<title>dodo&#45;&gt;quantile_filter_smoother</title>
<path fill="none" stroke="black" d="M487.52,-300.43C522.49,-293.74 583.91,-279.05 630.05,-252 650.12,-240.23 650.69,-231.5 668.05,-216 679.18,-206.06 691.7,-195.42 702.64,-186.29"/>
<polygon fill="black" stroke="black" points="705.18,-188.73 710.64,-179.65 700.71,-183.34 705.18,-188.73"/>
</g>
<!-- dodo&#45;&gt;spreadsheet_handle -->
<g id="edge19" class="edge">
<title>dodo&#45;&gt;spreadsheet_handle</title>
<path fill="none" stroke="black" d="M460.05,-287.87C460.05,-263.67 460.05,-219.21 460.05,-190.39"/>
<polygon fill="black" stroke="black" points="463.55,-190.19 460.05,-180.19 456.55,-190.19 463.55,-190.19"/>
</g>
<!-- dodo&#45;&gt;joint_angles -->
<g id="edge20" class="edge">
<title>dodo&#45;&gt;joint_angles</title>
<path fill="none" stroke="black" d="M479.18,-292.49C494.67,-282.35 516.84,-267.84 535.04,-255.94"/>
<polygon fill="black" stroke="black" points="537.15,-258.74 543.6,-250.34 533.32,-252.88 537.15,-258.74"/>
</g>
<!-- config_dodo -->
<g id="node11" class="node">
<title>config_dodo</title>
<ellipse fill="#b2dfee" stroke="#b2dfee" cx="732.05" cy="-234" rx="55.49" ry="18"/>
<text text-anchor="middle" x="732.05" y="-230.3" font-family="Times,serif" font-size="14.00">config_dodo</text>
</g>
<!-- dodo&#45;&gt;config_dodo -->
<g id="edge21" class="edge">
<title>dodo&#45;&gt;config_dodo</title>
<path fill="none" stroke="black" d="M486.13,-298.29C530.75,-286.8 622.52,-263.19 680.47,-248.27"/>
<polygon fill="black" stroke="black" points="681.36,-251.66 690.17,-245.78 679.62,-244.88 681.36,-251.66"/>
</g>
</g>
</svg>
