<?xml version="1.0" encoding="UTF-8" standalone="no"?>
<!DOCTYPE svg PUBLIC "-//W3C//DTD SVG 1.1//EN"
 "http://www.w3.org/Graphics/SVG/1.1/DTD/svg11.dtd">
<!-- Generated by graphviz version 2.43.0 (0)
 -->
<!-- Pages: 1 -->
<svg width="709pt" height="260pt"
 viewBox="0.00 0.00 708.84 260.00" xmlns="http://www.w3.org/2000/svg" xmlns:xlink="http://www.w3.org/1999/xlink">
<g id="graph0" class="graph" transform="scale(1 1) rotate(0) translate(4 256)">
<polygon fill="white" stroke="transparent" points="-4,4 -4,-256 704.84,-256 704.84,4 -4,4"/>
<!-- config -->
<g id="node1" class="node">
<title>config</title>
<ellipse fill="#b2dfee" stroke="#b2dfee" cx="263.59" cy="-90" rx="33.29" ry="18"/>
<text text-anchor="middle" x="263.59" y="-86.3" font-family="Times,serif" font-size="14.00">config</text>
</g>
<!-- dyadic_frequencies -->
<g id="node2" class="node">
<title>dyadic_frequencies</title>
<ellipse fill="#b2dfee" stroke="#b2dfee" cx="263.59" cy="-18" rx="79.09" ry="18"/>
<text text-anchor="middle" x="263.59" y="-14.3" font-family="Times,serif" font-size="14.00">dyadic_frequencies</text>
</g>
<!-- config&#45;&gt;dyadic_frequencies -->
<g id="edge1" class="edge">
<title>config&#45;&gt;dyadic_frequencies</title>
<path fill="none" stroke="black" d="M263.59,-71.7C263.59,-63.98 263.59,-54.71 263.59,-46.11"/>
<polygon fill="black" stroke="black" points="267.09,-46.1 263.59,-36.1 260.09,-46.1 267.09,-46.1"/>
</g>
<!-- kalman_filter -->
<g id="node3" class="node">
<title>kalman_filter</title>
<ellipse fill="#b2dfee" stroke="#b2dfee" cx="513.59" cy="-162" rx="58.49" ry="18"/>
<text text-anchor="middle" x="513.59" y="-158.3" font-family="Times,serif" font-size="14.00">kalman_filter</text>
</g>
<!-- kalman_filter&#45;&gt;config -->
<g id="edge2" class="edge">
<title>kalman_filter&#45;&gt;config</title>
<path fill="none" stroke="black" d="M471.21,-149.51C432.27,-138.9 372.98,-122.62 321.59,-108 315.24,-106.19 308.49,-104.24 301.94,-102.33"/>
<polygon fill="black" stroke="black" points="302.47,-98.84 291.89,-99.39 300.5,-105.56 302.47,-98.84"/>
</g>
<!-- utilities -->
<g id="node4" class="node">
<title>utilities</title>
<ellipse fill="#b2dfee" stroke="#b2dfee" cx="367.59" cy="-90" rx="37.09" ry="18"/>
<text text-anchor="middle" x="367.59" y="-86.3" font-family="Times,serif" font-size="14.00">utilities</text>
</g>
<!-- kalman_filter&#45;&gt;utilities -->
<g id="edge3" class="edge">
<title>kalman_filter&#45;&gt;utilities</title>
<path fill="none" stroke="black" d="M483.34,-146.5C459.64,-135.13 426.66,-119.32 401.96,-107.48"/>
<polygon fill="black" stroke="black" points="403.47,-104.32 392.94,-103.15 400.45,-110.63 403.47,-104.32"/>
</g>
<!-- wavelet_spectra -->
<g id="node5" class="node">
<title>wavelet_spectra</title>
<ellipse fill="#b2dfee" stroke="#b2dfee" cx="67.59" cy="-162" rx="67.69" ry="18"/>
<text text-anchor="middle" x="67.59" y="-158.3" font-family="Times,serif" font-size="14.00">wavelet_spectra</text>
</g>
<!-- wavelet_spectra&#45;&gt;config -->
<g id="edge4" class="edge">
<title>wavelet_spectra&#45;&gt;config</title>
<path fill="none" stroke="black" d="M106.32,-147.17C141.35,-134.66 192.57,-116.37 226.94,-104.09"/>
<polygon fill="black" stroke="black" points="228.36,-107.3 236.6,-100.64 226,-100.71 228.36,-107.3"/>
</g>
<!-- wavelet_spectra&#45;&gt;utilities -->
<g id="edge5" class="edge">
<title>wavelet_spectra&#45;&gt;utilities</title>
<path fill="none" stroke="black" d="M117.87,-149.87C184.96,-135.01 296.45,-110.27 305.59,-108 312.36,-106.32 319.52,-104.45 326.47,-102.58"/>
<polygon fill="black" stroke="black" points="327.72,-105.86 336.45,-99.86 325.88,-99.11 327.72,-105.86"/>
</g>
<!-- spreadsheet_handle -->
<g id="node6" class="node">
<title>spreadsheet_handle</title>
<ellipse fill="#b2dfee" stroke="#b2dfee" cx="232.59" cy="-162" rx="79.09" ry="18"/>
<text text-anchor="middle" x="232.59" y="-158.3" font-family="Times,serif" font-size="14.00">spreadsheet_handle</text>
</g>
<!-- spreadsheet_handle&#45;&gt;config -->
<g id="edge6" class="edge">
<title>spreadsheet_handle&#45;&gt;config</title>
<path fill="none" stroke="black" d="M240.1,-144.05C243.68,-135.97 248.04,-126.12 252.03,-117.11"/>
<polygon fill="black" stroke="black" points="255.31,-118.35 256.16,-107.79 248.91,-115.52 255.31,-118.35"/>
</g>
<!-- spreadsheet_handle&#45;&gt;utilities -->
<g id="edge7" class="edge">
<title>spreadsheet_handle&#45;&gt;utilities</title>
<path fill="none" stroke="black" d="M262.89,-145.29C284.11,-134.29 312.47,-119.58 334.32,-108.25"/>
<polygon fill="black" stroke="black" points="335.98,-111.33 343.25,-103.62 332.76,-105.12 335.98,-111.33"/>
</g>
<!-- joint_angles -->
<g id="node7" class="node">
<title>joint_angles</title>
<ellipse fill="#b2dfee" stroke="#b2dfee" cx="383.59" cy="-162" rx="53.89" ry="18"/>
<text text-anchor="middle" x="383.59" y="-158.3" font-family="Times,serif" font-size="14.00">joint_angles</text>
</g>
<!-- joint_angles&#45;&gt;config -->
<g id="edge8" class="edge">
<title>joint_angles&#45;&gt;config</title>
<path fill="none" stroke="black" d="M357.85,-145.98C339.18,-135.09 313.86,-120.32 294.16,-108.83"/>
<polygon fill="black" stroke="black" points="295.68,-105.66 285.28,-103.65 292.15,-111.71 295.68,-105.66"/>
</g>
<!-- joint_angles&#45;&gt;utilities -->
<g id="edge9" class="edge">
<title>joint_angles&#45;&gt;utilities</title>
<path fill="none" stroke="black" d="M379.64,-143.7C377.88,-135.98 375.76,-126.71 373.79,-118.11"/>
<polygon fill="black" stroke="black" points="377.14,-117.07 371.5,-108.1 370.32,-118.63 377.14,-117.07"/>
</g>
<!-- dodo -->
<g id="node8" class="node">
<title>dodo</title>
<ellipse fill="#b2dfee" stroke="#b2dfee" cx="383.59" cy="-234" rx="28.7" ry="18"/>
<text text-anchor="middle" x="383.59" y="-230.3" font-family="Times,serif" font-size="14.00">dodo</text>
</g>
<!-- dodo&#45;&gt;kalman_filter -->
<g id="edge10" class="edge">
<title>dodo&#45;&gt;kalman_filter</title>
<path fill="none" stroke="black" d="M404.77,-221.6C424.21,-211.13 453.43,-195.4 476.7,-182.87"/>
<polygon fill="black" stroke="black" points="478.47,-185.89 485.61,-178.07 475.15,-179.73 478.47,-185.89"/>
</g>
<!-- dodo&#45;&gt;wavelet_spectra -->
<g id="edge11" class="edge">
<title>dodo&#45;&gt;wavelet_spectra</title>
<path fill="none" stroke="black" d="M356.92,-227.09C306.65,-215.96 196.73,-191.61 127.78,-176.33"/>
<polygon fill="black" stroke="black" points="128.43,-172.89 117.91,-174.15 126.92,-179.73 128.43,-172.89"/>
</g>
<!-- dodo&#45;&gt;spreadsheet_handle -->
<g id="edge12" class="edge">
<title>dodo&#45;&gt;spreadsheet_handle</title>
<path fill="none" stroke="black" d="M361.31,-222.67C338.69,-212.18 303.08,-195.68 275.05,-182.68"/>
<polygon fill="black" stroke="black" points="276.41,-179.45 265.86,-178.42 273.46,-185.8 276.41,-179.45"/>
</g>
<!-- dodo&#45;&gt;joint_angles -->
<g id="edge13" class="edge">
<title>dodo&#45;&gt;joint_angles</title>
<path fill="none" stroke="black" d="M383.59,-215.7C383.59,-207.98 383.59,-198.71 383.59,-190.11"/>
<polygon fill="black" stroke="black" points="387.09,-190.1 383.59,-180.1 380.09,-190.1 387.09,-190.1"/>
</g>
<!-- config_dodo -->
<g id="node9" class="node">
<title>config_dodo</title>
<ellipse fill="#b2dfee" stroke="#b2dfee" cx="645.59" cy="-162" rx="55.49" ry="18"/>
<text text-anchor="middle" x="645.59" y="-158.3" font-family="Times,serif" font-size="14.00">config_dodo</text>
</g>
<!-- dodo&#45;&gt;config_dodo -->
<g id="edge14" class="edge">
<title>dodo&#45;&gt;config_dodo</title>
<path fill="none" stroke="black" d="M409.67,-226.03C452.56,-214.57 538.76,-191.54 594.24,-176.72"/>
<polygon fill="black" stroke="black" points="595.47,-180.02 604.22,-174.05 593.66,-173.25 595.47,-180.02"/>
</g>
</g>
</svg>
